<svg width="619" height="157" viewBox="0 0 619 157" fill="none" xmlns="http://www.w3.org/2000/svg">
<rect width="619" height="157" rx="25" fill="#023047"/>
<path d="M196.006 66.8182C195.707 64.2992 194.498 62.3438 192.376 60.9517C190.255 59.5597 187.653 58.8636 184.571 58.8636C182.317 58.8636 180.345 59.2282 178.655 59.9574C176.981 60.6866 175.672 61.6892 174.727 62.9652C173.799 64.2412 173.335 65.6913 173.335 67.3153C173.335 68.6742 173.658 69.8426 174.305 70.8203C174.968 71.7815 175.813 72.5852 176.84 73.2315C177.868 73.8613 178.945 74.3833 180.072 74.7976C181.199 75.1953 182.234 75.5185 183.179 75.767L188.349 77.1591C189.675 77.5071 191.15 77.9877 192.774 78.6009C194.415 79.214 195.981 80.0509 197.472 81.1115C198.98 82.1555 200.223 83.4979 201.201 85.1385C202.179 86.7791 202.668 88.7926 202.668 91.179C202.668 93.9299 201.947 96.4157 200.505 98.6364C199.08 100.857 196.992 102.622 194.241 103.931C191.506 105.24 188.184 105.895 184.273 105.895C180.627 105.895 177.47 105.307 174.802 104.13C172.15 102.953 170.062 101.313 168.538 99.2081C167.03 97.1035 166.176 94.6591 165.977 91.875H172.341C172.507 93.7973 173.153 95.3883 174.28 96.6477C175.423 97.8906 176.865 98.8187 178.605 99.4318C180.362 100.028 182.251 100.327 184.273 100.327C186.626 100.327 188.739 99.9455 190.612 99.1832C192.484 98.4044 193.967 97.3272 195.061 95.9517C196.155 94.5597 196.702 92.9356 196.702 91.0795C196.702 89.3892 196.229 88.0137 195.285 86.9531C194.34 85.8925 193.097 85.0308 191.556 84.3679C190.015 83.705 188.349 83.125 186.56 82.6278L180.295 80.8381C176.318 79.6946 173.17 78.0623 170.849 75.9411C168.529 73.8198 167.369 71.044 167.369 67.6136C167.369 64.7633 168.14 62.2775 169.681 60.1562C171.239 58.0185 173.327 56.3613 175.945 55.1847C178.58 53.9915 181.522 53.3949 184.77 53.3949C188.051 53.3949 190.968 53.9832 193.52 55.1598C196.072 56.3198 198.094 57.9107 199.585 59.9325C201.093 61.9543 201.889 64.2495 201.972 66.8182H196.006ZM212.803 105V54.0909H230.005C233.999 54.0909 237.264 54.8118 239.799 56.2535C242.351 57.6787 244.24 59.6094 245.467 62.0455C246.693 64.4815 247.306 67.1993 247.306 70.1989C247.306 73.1984 246.693 75.9245 245.467 78.3771C244.257 80.8298 242.384 82.7853 239.849 84.2436C237.313 85.6854 234.065 86.4062 230.105 86.4062H217.775V80.9375H229.906C232.64 80.9375 234.836 80.4652 236.493 79.5206C238.15 78.576 239.352 77.3 240.097 75.6925C240.86 74.0684 241.241 72.2372 241.241 70.1989C241.241 68.1605 240.86 66.3376 240.097 64.7301C239.352 63.1226 238.142 61.8632 236.468 60.9517C234.794 60.0237 232.574 59.5597 229.806 59.5597H218.968V105H212.803ZM254.13 105H247.667L266.36 54.0909H272.724L291.417 105H284.954L269.741 62.1449H269.343L254.13 105ZM256.516 85.1136H282.567V90.5824H256.516V85.1136ZM299.346 105V54.0909H316.548C320.525 54.0909 323.79 54.7704 326.342 56.1293C328.894 57.4716 330.783 59.3194 332.01 61.6726C333.236 64.0258 333.849 66.7022 333.849 69.7017C333.849 72.7012 333.236 75.361 332.01 77.6811C330.783 80.0012 328.903 81.8241 326.367 83.1499C323.832 84.459 320.592 85.1136 316.648 85.1136H302.727V79.5455H316.449C319.166 79.5455 321.354 79.1477 323.011 78.3523C324.685 77.5568 325.895 76.4299 326.64 74.9716C327.403 73.4967 327.784 71.7401 327.784 69.7017C327.784 67.6634 327.403 65.8819 326.64 64.3572C325.878 62.8326 324.66 61.656 322.986 60.8274C321.313 59.9822 319.1 59.5597 316.349 59.5597H305.511V105H299.346ZM323.309 82.1307L335.838 105H328.679L316.349 82.1307H323.309ZM362.616 89.0909H369.377L375.045 96.5483L376.537 98.5369L384.988 109.773H378.227L372.659 102.315L371.267 100.426L362.616 89.0909ZM387.076 79.5455C387.076 84.9148 386.107 89.5549 384.168 93.4659C382.229 97.3769 379.569 100.393 376.189 102.514C372.808 104.635 368.947 105.696 364.605 105.696C360.263 105.696 356.402 104.635 353.021 102.514C349.64 100.393 346.98 97.3769 345.042 93.4659C343.103 89.5549 342.133 84.9148 342.133 79.5455C342.133 74.1761 343.103 69.536 345.042 65.625C346.98 61.714 349.64 58.6979 353.021 56.5767C356.402 54.4555 360.263 53.3949 364.605 53.3949C368.947 53.3949 372.808 54.4555 376.189 56.5767C379.569 58.6979 382.229 61.714 384.168 65.625C386.107 69.536 387.076 74.1761 387.076 79.5455ZM381.11 79.5455C381.11 75.1373 380.373 71.4169 378.898 68.3842C377.44 65.3516 375.459 63.0563 372.957 61.4986C370.471 59.9408 367.687 59.1619 364.605 59.1619C361.522 59.1619 358.73 59.9408 356.228 61.4986C353.742 63.0563 351.761 65.3516 350.287 68.3842C348.828 71.4169 348.099 75.1373 348.099 79.5455C348.099 83.9536 348.828 87.674 350.287 90.7067C351.761 93.7393 353.742 96.0346 356.228 97.5923C358.73 99.1501 361.522 99.929 364.605 99.929C367.687 99.929 370.471 99.1501 372.957 97.5923C375.459 96.0346 377.44 93.7393 378.898 90.7067C380.373 87.674 381.11 83.9536 381.11 79.5455ZM397.442 105V54.0909H403.607V99.5312H427.272V105H397.442ZM451.949 76.8111V82.2798H429.677V76.8111H451.949ZM481.561 89.0909H488.323L493.99 96.5483L495.482 98.5369L503.934 109.773H497.172L491.604 102.315L490.212 100.426L481.561 89.0909ZM506.022 79.5455C506.022 84.9148 505.052 89.5549 503.113 93.4659C501.174 97.3769 498.515 100.393 495.134 102.514C491.753 104.635 487.892 105.696 483.55 105.696C479.208 105.696 475.347 104.635 471.966 102.514C468.586 100.393 465.926 97.3769 463.987 93.4659C462.048 89.5549 461.078 84.9148 461.078 79.5455C461.078 74.1761 462.048 69.536 463.987 65.625C465.926 61.714 468.586 58.6979 471.966 56.5767C475.347 54.4555 479.208 53.3949 483.55 53.3949C487.892 53.3949 491.753 54.4555 495.134 56.5767C498.515 58.6979 501.174 61.714 503.113 65.625C505.052 69.536 506.022 74.1761 506.022 79.5455ZM500.056 79.5455C500.056 75.1373 499.318 71.4169 497.843 68.3842C496.385 65.3516 494.405 63.0563 491.902 61.4986C489.417 59.9408 486.632 59.1619 483.55 59.1619C480.468 59.1619 477.675 59.9408 475.173 61.4986C472.687 63.0563 470.707 65.3516 469.232 68.3842C467.774 71.4169 467.044 75.1373 467.044 79.5455C467.044 83.9536 467.774 87.674 469.232 90.7067C470.707 93.7393 472.687 96.0346 475.173 97.5923C477.675 99.1501 480.468 99.929 483.55 99.929C486.632 99.929 489.417 99.1501 491.902 97.5923C494.405 96.0346 496.385 93.7393 497.843 90.7067C499.318 87.674 500.056 83.9536 500.056 79.5455ZM516.387 105V54.0909H534.186C537.732 54.0909 540.657 54.7041 542.961 55.9304C545.264 57.1401 546.979 58.7725 548.106 60.8274C549.233 62.8658 549.797 65.1278 549.797 67.6136C549.797 69.8011 549.407 71.6075 548.628 73.0327C547.866 74.4579 546.855 75.5848 545.596 76.4134C544.353 77.242 543.002 77.8551 541.544 78.2528V78.75C543.101 78.8494 544.667 79.3963 546.242 80.3906C547.816 81.3849 549.134 82.8101 550.194 84.6662C551.255 86.5223 551.785 88.7926 551.785 91.4773C551.785 94.0294 551.205 96.3246 550.045 98.3629C548.885 100.401 547.054 102.017 544.551 103.21C542.049 104.403 538.793 105 534.782 105H516.387ZM522.552 99.5312H534.782C538.809 99.5312 541.668 98.7524 543.358 97.1946C545.065 95.6203 545.919 93.7145 545.919 91.4773C545.919 89.7538 545.48 88.1629 544.601 86.7045C543.723 85.2296 542.472 84.053 540.848 83.1747C539.224 82.2798 537.301 81.8324 535.081 81.8324H522.552V99.5312ZM522.552 76.4631H533.987C535.843 76.4631 537.517 76.0985 539.008 75.3693C540.516 74.6402 541.709 73.6127 542.588 72.2869C543.483 70.9612 543.93 69.4034 543.93 67.6136C543.93 65.3764 543.151 63.4789 541.593 61.9212C540.036 60.3468 537.566 59.5597 534.186 59.5597H522.552V76.4631ZM561.915 105V54.0909H592.639V59.5597H568.08V76.7614H591.048V82.2301H568.08V99.5312H593.037V105H561.915Z" fill="#FFB703"/>
<circle cx="80" cy="24" r="10" fill="#FFB703"/>
<circle cx="128" cy="96" r="10" fill="#FFB703"/>
<path d="M107 31.5C124.788 45.3008 133.331 54.3105 131 86" stroke="#FFB703" stroke-width="2"/>
<circle cx="32" cy="96" r="10" fill="#FFB703"/>
<path d="M29 67C34 45.5 45.5 31 69.5 25" stroke="#FFB703" stroke-width="2"/>
<path d="M106 121.5C86.9413 132.41 52.6725 130.843 35.8911 104.468" stroke="#FFB703" stroke-width="2"/>
</svg>
