<svg width="429" height="57" viewBox="0 0 429 57" fill="none" xmlns="http://www.w3.org/2000/svg">
<path d="M31.0057 13.8182C30.7074 11.2992 29.4976 9.34375 27.3764 7.9517C25.2552 6.55966 22.6534 5.86363 19.571 5.86363C17.3172 5.86363 15.3452 6.22822 13.6548 6.95738C11.9811 7.68655 10.6719 8.68916 9.72727 9.9652C8.79924 11.2412 8.33523 12.6913 8.33523 14.3153C8.33523 15.6742 8.65838 16.8426 9.30469 17.8203C9.96757 18.7815 10.8127 19.5852 11.8402 20.2315C12.8677 20.8613 13.9448 21.3833 15.0717 21.7976C16.1986 22.1953 17.2344 22.5185 18.179 22.767L23.3494 24.1591C24.6752 24.5071 26.1501 24.9877 27.7741 25.6009C29.4148 26.214 30.9808 27.0509 32.4723 28.1115C33.9804 29.1555 35.2232 30.4979 36.201 32.1385C37.1787 33.7791 37.6676 35.7926 37.6676 38.179C37.6676 40.9299 36.9467 43.4157 35.505 45.6364C34.0798 47.857 31.9917 49.6219 29.2408 50.9311C26.5064 52.2403 23.1837 52.8949 19.2727 52.8949C15.6269 52.8949 12.4699 52.3066 9.80185 51.13C7.15033 49.9534 5.06226 48.3127 3.53764 46.2081C2.02959 44.1035 1.17614 41.6591 0.977273 38.875H7.34091C7.50663 40.7973 8.15294 42.3883 9.27983 43.6477C10.4233 44.8906 11.8651 45.8187 13.6051 46.4318C15.3617 47.0284 17.2509 47.3267 19.2727 47.3267C21.6259 47.3267 23.7389 46.9455 25.6115 46.1832C27.4841 45.4044 28.9673 44.3272 30.0611 42.9517C31.1548 41.5597 31.7017 39.9356 31.7017 38.0795C31.7017 36.3892 31.2294 35.0137 30.2848 33.9531C29.3402 32.8925 28.0973 32.0308 26.5561 31.3679C25.0149 30.705 23.3494 30.125 21.5597 29.6278L15.2955 27.8381C11.3182 26.6946 8.16951 25.0623 5.84943 22.9411C3.52936 20.8198 2.36932 18.044 2.36932 14.6136C2.36932 11.7633 3.13991 9.27746 4.68111 7.15625C6.23887 5.01846 8.32694 3.36127 10.9453 2.18466C13.5803 0.991476 16.5218 0.394884 19.7699 0.394884C23.0511 0.394884 25.9678 0.983189 28.5199 2.1598C31.072 3.31984 33.0938 4.91074 34.5852 6.93253C36.0933 8.95431 36.8887 11.2495 36.9716 13.8182H31.0057ZM47.8034 52V1.09091H65.0052C68.999 1.09091 72.2637 1.81179 74.7992 3.25355C77.3513 4.67874 79.2405 6.60938 80.4668 9.04545C81.6931 11.4815 82.3063 14.1993 82.3063 17.1989C82.3063 20.1984 81.6931 22.9245 80.4668 25.3771C79.257 27.8298 77.3844 29.7853 74.8489 31.2436C72.3134 32.6854 69.0653 33.4062 65.1046 33.4062H52.775V27.9375H64.9057C67.6401 27.9375 69.8359 27.4652 71.4931 26.5206C73.1503 25.576 74.3517 24.3 75.0975 22.6925C75.8598 21.0684 76.2409 19.2372 76.2409 17.1989C76.2409 15.1605 75.8598 13.3376 75.0975 11.7301C74.3517 10.1226 73.142 8.86316 71.4682 7.9517C69.7944 7.02367 67.5738 6.55966 64.8063 6.55966H53.9682V52H47.8034ZM89.1298 52H82.6667L101.36 1.09091H107.724L126.417 52H119.954L104.741 9.14488H104.343L89.1298 52ZM91.5162 32.1136H117.567V37.5824H91.5162V32.1136ZM134.346 52V1.09091H151.548C155.525 1.09091 158.79 1.77036 161.342 3.12926C163.894 4.47159 165.783 6.31936 167.01 8.67259C168.236 11.0258 168.849 13.7022 168.849 16.7017C168.849 19.7012 168.236 22.361 167.01 24.6811C165.783 27.0012 163.903 28.8241 161.367 30.1499C158.832 31.459 155.592 32.1136 151.648 32.1136H137.727V26.5455H151.449C154.166 26.5455 156.354 26.1477 158.011 25.3523C159.685 24.5568 160.895 23.4299 161.64 21.9716C162.403 20.4967 162.784 18.7401 162.784 16.7017C162.784 14.6634 162.403 12.8819 161.64 11.3572C160.878 9.83262 159.66 8.65601 157.986 7.82741C156.313 6.98224 154.1 6.55966 151.349 6.55966H140.511V52H134.346ZM158.309 29.1307L170.838 52H163.679L151.349 29.1307H158.309ZM197.616 36.0909H204.377L210.045 43.5483L211.537 45.5369L219.988 56.7727H213.227L207.659 49.3153L206.267 47.4261L197.616 36.0909ZM222.076 26.5455C222.076 31.9148 221.107 36.5549 219.168 40.4659C217.229 44.3769 214.569 47.393 211.189 49.5142C207.808 51.6354 203.947 52.696 199.605 52.696C195.263 52.696 191.402 51.6354 188.021 49.5142C184.64 47.393 181.98 44.3769 180.042 40.4659C178.103 36.5549 177.133 31.9148 177.133 26.5455C177.133 21.1761 178.103 16.536 180.042 12.625C181.98 8.71402 184.64 5.69792 188.021 3.5767C191.402 1.45549 195.263 0.394884 199.605 0.394884C203.947 0.394884 207.808 1.45549 211.189 3.5767C214.569 5.69792 217.229 8.71402 219.168 12.625C221.107 16.536 222.076 21.1761 222.076 26.5455ZM216.11 26.5455C216.11 22.1373 215.373 18.4169 213.898 15.3842C212.44 12.3516 210.459 10.0563 207.957 8.49858C205.471 6.94081 202.687 6.16193 199.605 6.16193C196.522 6.16193 193.73 6.94081 191.228 8.49858C188.742 10.0563 186.761 12.3516 185.287 15.3842C183.828 18.4169 183.099 22.1373 183.099 26.5455C183.099 30.9536 183.828 34.674 185.287 37.7067C186.761 40.7393 188.742 43.0346 191.228 44.5923C193.73 46.1501 196.522 46.929 199.605 46.929C202.687 46.929 205.471 46.1501 207.957 44.5923C210.459 43.0346 212.44 40.7393 213.898 37.7067C215.373 34.674 216.11 30.9536 216.11 26.5455ZM232.442 52V1.09091H238.607V46.5312H262.272V52H232.442ZM286.949 23.8111V29.2798H264.677V23.8111H286.949ZM316.561 36.0909H323.323L328.99 43.5483L330.482 45.5369L338.934 56.7727H332.172L326.604 49.3153L325.212 47.4261L316.561 36.0909ZM341.022 26.5455C341.022 31.9148 340.052 36.5549 338.113 40.4659C336.174 44.3769 333.515 47.393 330.134 49.5142C326.753 51.6354 322.892 52.696 318.55 52.696C314.208 52.696 310.347 51.6354 306.966 49.5142C303.586 47.393 300.926 44.3769 298.987 40.4659C297.048 36.5549 296.078 31.9148 296.078 26.5455C296.078 21.1761 297.048 16.536 298.987 12.625C300.926 8.71402 303.586 5.69792 306.966 3.5767C310.347 1.45549 314.208 0.394884 318.55 0.394884C322.892 0.394884 326.753 1.45549 330.134 3.5767C333.515 5.69792 336.174 8.71402 338.113 12.625C340.052 16.536 341.022 21.1761 341.022 26.5455ZM335.056 26.5455C335.056 22.1373 334.318 18.4169 332.843 15.3842C331.385 12.3516 329.405 10.0563 326.902 8.49858C324.417 6.94081 321.632 6.16193 318.55 6.16193C315.468 6.16193 312.675 6.94081 310.173 8.49858C307.687 10.0563 305.707 12.3516 304.232 15.3842C302.774 18.4169 302.044 22.1373 302.044 26.5455C302.044 30.9536 302.774 34.674 304.232 37.7067C305.707 40.7393 307.687 43.0346 310.173 44.5923C312.675 46.1501 315.468 46.929 318.55 46.929C321.632 46.929 324.417 46.1501 326.902 44.5923C329.405 43.0346 331.385 40.7393 332.843 37.7067C334.318 34.674 335.056 30.9536 335.056 26.5455ZM351.387 52V1.09091H369.186C372.732 1.09091 375.657 1.70407 377.961 2.9304C380.264 4.14015 381.979 5.77249 383.106 7.82741C384.233 9.86576 384.797 12.1278 384.797 14.6136C384.797 16.8011 384.407 18.6075 383.628 20.0327C382.866 21.4579 381.855 22.5848 380.596 23.4134C379.353 24.242 378.002 24.8551 376.544 25.2528V25.75C378.101 25.8494 379.667 26.3963 381.242 27.3906C382.816 28.3849 384.134 29.8101 385.194 31.6662C386.255 33.5223 386.785 35.7926 386.785 38.4773C386.785 41.0294 386.205 43.3246 385.045 45.3629C383.885 47.4013 382.054 49.017 379.551 50.2102C377.049 51.4034 373.793 52 369.782 52H351.387ZM357.552 46.5312H369.782C373.809 46.5312 376.668 45.7524 378.358 44.1946C380.065 42.6203 380.919 40.7145 380.919 38.4773C380.919 36.7538 380.48 35.1629 379.601 33.7045C378.723 32.2296 377.472 31.053 375.848 30.1747C374.224 29.2798 372.301 28.8324 370.081 28.8324H357.552V46.5312ZM357.552 23.4631H368.987C370.843 23.4631 372.517 23.0985 374.008 22.3693C375.516 21.6402 376.709 20.6127 377.588 19.2869C378.483 17.9612 378.93 16.4034 378.93 14.6136C378.93 12.3764 378.151 10.4789 376.593 8.92116C375.036 7.34683 372.566 6.55966 369.186 6.55966H357.552V23.4631ZM396.915 52V1.09091H427.639V6.55966H403.08V23.7614H426.048V29.2301H403.08V46.5312H428.037V52H396.915Z" fill="url(#paint0_linear_191_1496)"/>
<defs>
<linearGradient id="paint0_linear_191_1496" x1="-3" y1="26.5" x2="433" y2="26.5" gradientUnits="userSpaceOnUse">
<stop stop-color="white"/>
<stop offset="1" stop-color="#8ECAE6"/>
</linearGradient>
</defs>
</svg>
